<svg width="40" height="40" viewBox="0 0 40 40" fill="none" xmlns="http://www.w3.org/2000/svg"><circle cx="20" cy="20" r="20" fill="#fff" fill-opacity=".2" filter="url(#a)"/><path fill-rule="evenodd" clip-rule="evenodd" d="M13.73 28.333h12.54V20H13.73v8.333zm2.378-12.916c0-2.068 1.746-3.75 3.892-3.75s3.892 1.682 3.892 3.75v2.916h-7.784v-2.916zm11.027 2.916h-1.513v-2.916C25.622 12.43 23.1 10 20 10s-5.622 2.43-5.622 5.417v2.916h-1.513c-.478 0-.865.374-.865.834v10c0 .46.387.833.865.833h14.27c.477 0 .865-.373.865-.833v-10c0-.46-.387-.834-.865-.834z" fill="#fff"/><path fill-rule="evenodd" clip-rule="evenodd" d="M20 25.625a.637.637 0 0 1-.648-.625v-1.667c0-.345.29-.625.648-.625.359 0 .649.28.649.625V25c0 .345-.29.625-.649.625z" fill="#fff"/><defs><filter id="a" x="-4" y="-4" width="48" height="48" filterUnits="userSpaceOnUse" color-interpolation-filters="sRGB"><feFlood flood-opacity="0" result="BackgroundImageFix"/><feGaussianBlur in="BackgroundImage" stdDeviation="2"/><feComposite in2="SourceAlpha" operator="in" result="effect1_backgroundBlur"/><feBlend in="SourceGraphic" in2="effect1_backgroundBlur" result="shape"/></filter></defs></svg>