<svg width="40" height="50" viewBox="0 0 40 50" fill="none" xmlns="http://www.w3.org/2000/svg"><path d="M10 15.065C10 9.515 14.485 5 20 5s10 4.515 10 10.065C30 20.36 20 35 20 35S10 20.36 10 15.065zM16 15c0 2.205 1.795 4 4 4s4-1.795 4-4-1.795-4-4-4-4 1.795-4 4z" fill="#000" filter="url(#a)"/><path d="M10 15.065C10 9.515 14.485 5 20 5s10 4.515 10 10.065C30 20.36 20 35 20 35S10 20.36 10 15.065zM16 15c0 2.205 1.795 4 4 4s4-1.795 4-4-1.795-4-4-4-4 1.795-4 4z" fill="url(#b)" stroke="#171C34" stroke-opacity=".09"/><defs><filter id="a" x="0" y="0" width="40" height="50" filterUnits="userSpaceOnUse" color-interpolation-filters="sRGB"><feFlood flood-opacity="0" result="BackgroundImageFix"/><feColorMatrix in="SourceAlpha" values="0 0 0 0 0 0 0 0 0 0 0 0 0 0 0 0 0 0 127 0"/><feOffset dy="5"/><feGaussianBlur stdDeviation="5"/><feColorMatrix values="0 0 0 0 0.0901961 0 0 0 0 0.109804 0 0 0 0 0.203922 0 0 0 0.2 0"/><feBlend in2="BackgroundImageFix" result="effect1_dropShadow"/><feBlend in="SourceGraphic" in2="effect1_dropShadow" result="shape"/></filter><linearGradient id="b" x1="10" y1="5" x2="76.211" y2="68.649" gradientUnits="userSpaceOnUse"><stop stop-color="#218F44"/><stop offset="1" stop-color="#218F44"/></linearGradient></defs></svg>