<svg width="200" height="56" viewBox="0 0 200 56" fill="none" xmlns="http://www.w3.org/2000/svg"><path opacity=".1" d="M52.547 30.376a22.112 22.112 0 0 1-1.079 5.277c-.148.449-.143.731.28 1.04.591.439 1.12.974 1.68 1.444a.84.84 0 0 1 .28 1.14c-.653 1.252-1.316 2.5-1.99 3.743-.241.445-.636.535-1.12.406-.794-.216-1.594-.4-2.381-.633a.44.44 0 0 0-.56.182 22.966 22.966 0 0 1-3.513 3.713.532.532 0 0 0-.17.686c.263.73.48 1.478.753 2.206a.867.867 0 0 1-.367 1.165 268.275 268.275 0 0 1-3.574 2.184.866.866 0 0 1-1.168-.174c-.54-.56-1.12-1.095-1.647-1.66a.56.56 0 0 0-.745-.18 22.574 22.574 0 0 1-5.215 1.443.594.594 0 0 0-.58.56c-.154.78-.378 1.55-.543 2.332a.84.84 0 0 1-.9.747h-4.2a.84.84 0 0 1-.902-.739c-.171-.82-.407-1.63-.575-2.45a.498.498 0 0 0-.473-.459 23.037 23.037 0 0 1-5.263-1.492.457.457 0 0 0-.588.123c-.56.594-1.174 1.15-1.734 1.747a.88.88 0 0 1-1.213.182 233.394 233.394 0 0 1-3.52-2.153.888.888 0 0 1-.392-1.165c.263-.73.473-1.48.745-2.209a.59.59 0 0 0-.188-.784 21.459 21.459 0 0 1-3.36-3.59.513.513 0 0 0-.668-.22c-.764.232-1.554.386-2.321.618a.967.967 0 0 1-1.278-.532 1281.47 1281.47 0 0 1-1.865-3.53.873.873 0 0 1 .233-1.201c.647-.538 1.26-1.12 1.912-1.65a.52.52 0 0 0 .188-.672 18.824 18.824 0 0 1-1.03-5.04c-.087-.49.176-.464.492-.318.816.374 1.659.686 2.521.935.947-.045 1.238.487 1.443 1.344a19.573 19.573 0 0 0 5.601 9.665 20.107 20.107 0 0 0 10.621 5.47c4.481.796 8.778.28 12.87-1.68a20.574 20.574 0 0 0 6.884-5.386 20.28 20.28 0 0 0 4.308-8.806.544.544 0 0 1 .585-.5c.227.012.453-.016.67-.082a11.76 11.76 0 0 0 2.271-.874c.244-.14.49-.33.785-.173z" fill="#1A2828"/><path opacity=".2" d="M49.502 31.552c-.913-.056-1.12.492-1.302 1.274a19.501 19.501 0 0 1-3.518 7.302 21.311 21.311 0 0 1-6.974 5.896A20.564 20.564 0 0 1 26.28 48.34a20.084 20.084 0 0 1-9.413-3.147 21.001 21.001 0 0 1-7.988-9.24 16.099 16.099 0 0 1-1.171-3.612c-.112-.585-.339-.767-.885-.694a.86.86 0 0 1-.28-.067c.176-.28.476-.221.722-.202a3.082 3.082 0 0 0 2.902-1.28.28.28 0 0 1 .311-.142 18.923 18.923 0 0 0 2.495 6.689c3.815 6.145 11.005 9.31 18.276 8.024 6.893-1.218 12.632-6.823 14.04-13.72.07-.34.13-.683.194-1.024.244 0 .35.185.476.339a2.941 2.941 0 0 0 2.4 1.12c.373-.026.801-.163 1.143.168z" fill="#1A2828"/><path d="M37.344 18.989c.319 0 .422.193.56.338a13.345 13.345 0 0 1 3.187 7.188c.048.366-.143.56-.356.795-2.092 2.24-4.71 3.64-7.562 4.7-1.286.477-2.599.544-3.94.53-.328 0-.48-.07-.477-.442.017-1.7 0-3.4 0-5.096.023-1.425.922-2.43 2.339-2.766 2-.47 3.899-1.168 5.38-2.672a2.761 2.761 0 0 0 .869-2.575zm-18.764-.082a2.918 2.918 0 0 0 .964 2.8c1.361 1.3 3.04 2.02 4.834 2.439 2.006.47 2.768 1.347 2.768 3.413v4.48c0 .403-.132.49-.53.52-2.49.194-4.674-.741-6.814-1.808a16.226 16.226 0 0 1-4.453-3.248 1.4 1.4 0 0 1-.465-1.335 13.306 13.306 0 0 1 3.386-7.095c.073-.084.123-.188.31-.166zm9.263 3.626c-2.075-.087-4.201-.341-6.052-1.562-2.06-1.352-2.037-3.268.03-4.603a9.723 9.723 0 0 1 4.235-1.4c2.294-.266 4.56-.112 6.722.736a5.709 5.709 0 0 1 2.21 1.423 2.206 2.206 0 0 1-.115 3.234c-1.207 1.167-2.73 1.632-4.321 1.931-.895.158-1.8.238-2.709.241zm13.22 6.692a12.746 12.746 0 0 1-3.297 7.487 13.076 13.076 0 0 1-8.122 4.258c-.893.13-.899.12-.899-.761v-3.08c0-1.65.958-2.747 2.568-3.018 3.619-.608 6.837-2.027 9.411-4.712.095-.073.151-.208.34-.174zm-26.205-.176a14.191 14.191 0 0 0 4.787 3.541 17.594 17.594 0 0 0 4.98 1.543c1.56.224 2.52 1.341 2.52 2.915 0 1.148-.019 2.293 0 3.44 0 .454-.153.56-.56.516a13.398 13.398 0 0 1-5.66-1.94 13.08 13.08 0 0 1-6.067-10.015zM42.48 18.2c.023-2.313 1.434-3.75 3.902-4.027a27.209 27.209 0 0 1 5.65.095c.445.042.45.165.28.52a24.997 24.997 0 0 1-3.314 5.5c-1.12 1.537-4.14 2.349-5.8-.12a5.282 5.282 0 0 1-.718-1.969zm-29.198-1.908c.669 1.812.016 3.27-1.26 4.539-.788.781-1.765.918-2.802.658a4.913 4.913 0 0 1-2.722-1.887 26.07 26.07 0 0 1-2.8-4.877c-.158-.336-.077-.412.28-.437.733-.056 1.467-.146 2.198-.224 1.885-.062 3.809-.406 5.557.621.63.387 1.322.793 1.549 1.607zM28.062 0c1.4 1.982 2.8 3.886 3.445 6.19a4.067 4.067 0 0 1-.236 2.938c-.56 1.12-1.563 1.582-2.759 1.665-2.072.143-3.809-.643-4.021-3.037a3.921 3.921 0 0 1 .072-1.46C25.241 3.963 26.64 2.023 28.062 0zM10.467 29.942a3.321 3.321 0 0 1-3.263 1.604 5.846 5.846 0 0 0-.672.023c-.92-.22-1.806-.56-2.636-1.011-.336-.188-.367-.02-.378.235a1.002 1.002 0 0 0-.586-.77A22.947 22.947 0 0 1 0 28.119a14.37 14.37 0 0 1 1.8-1.305 19.05 19.05 0 0 1 3.608-1.99 4.906 4.906 0 0 1 3.081-.219c1.96.493 2.47 2.265 2.297 4.026-.074.445-.18.883-.32 1.31zM42.5 7.56a15.612 15.612 0 0 1-.213 2.993 5.012 5.012 0 0 1-1.12 2.223 2.94 2.94 0 0 1-2.63 1.053c-2.927-.21-4.437-3.019-2.966-5.519a5.808 5.808 0 0 1 1.77-1.767 28.664 28.664 0 0 1 4.481-2.447c.41-.19.513-.109.56.336A37.2 37.2 0 0 1 42.5 7.56zm-28.672 3.51c-.429-2.211-.33-4.437-.151-6.663.025-.325.056-.518.456-.333 1.91.87 3.823 1.753 5.406 3.155 1.1.978 1.826 2.21 1.5 3.752-.503 2.389-3.685 3.565-5.822 2.198-.843-.456-1.182-1.24-1.39-2.108zm35.674 20.482c-.902-.05-1.82.098-2.683-.356a4.326 4.326 0 0 1-1.35-1.28 5.914 5.914 0 0 1-.26-2.713 3.572 3.572 0 0 1 1.092-2.069c.31-.51.84-.627 1.364-.72 1.407-.26 2.86.02 4.07.785a.723.723 0 0 1 .251.26 34.147 34.147 0 0 1 3.734 2.447c.089.06.183.112.28.157-1.143.938-2.353 1.543-3.453 2.313-1.009.389-1.961.966-3.045 1.176zM24.174 7.599c.079.308-.059.49-.417.56-.762.14-1.51.34-2.24.596-.67.224-.634-.43-.816-.725-.182-.294.213-.297.386-.361.77-.278 1.558-.5 2.359-.664.694-.165.722-.148.728.594zm7.789-.224c-.081-.423.137-.515.63-.392.82.185 1.628.414 2.423.686.154.056.535.056.33.341-.204.286-.095.908-.677.76-.813-.205-1.605-.485-2.431-.642-.404-.073-.252-.395-.275-.753zm12.688 6.843c-.19.28-.521.339-.753.529-.171.143-.297.03-.42-.095-.56-.56-1.152-1.12-1.681-1.714-.384-.434.202-.66.339-.966.137-.305.341 0 .468.112a18.991 18.991 0 0 1 1.809 1.843l.238.29z" fill="#218F44"/><path d="M12.332 13.078l.12-.123a2.26 2.26 0 0 1 .821-.885c.236-.15.451-.481.784-.129.437.462.524.885.174 1.224-.602.577-1.12 1.238-1.8 1.733-.449.104-.707-.238-1.012-.445-.19-.131-.095-.322.02-.481.179-.252.465-.393.663-.625a.317.317 0 0 1 .23-.269zM7.405 24.099c-.703.148-.798-.07-.647-.56.205-.664.35-1.344.56-2.005.048-.16.017-.583.376-.356.28.18.882.112.75.7-.15.678-.372 1.336-.537 2.01-.112.423-.437.191-.502.21zm41.487-1.801c.1.476.181.958.305 1.428.075.28.025.4-.294.423-.779.053-.84.022-.997-.745a9.204 9.204 0 0 0-.37-1.352c-.28-.725.4-.709.706-.865.409-.21.263.308.406.47.035.048.066.1.092.154.028.17.014.353.151.487zm31.116-1.078c2.97 0 5.104-2.244 5.104-5.94v-.176c0-3.696-2.222-5.852-5.104-5.852-1.694 0-3.124.99-3.762 2.09V4.17h-2.662V21h2.662v-1.848c.616 1.166 1.914 2.068 3.762 2.068zm-.66-2.112c-1.936 0-3.19-1.21-3.19-3.784v-.176c0-2.574 1.32-3.806 3.168-3.806 1.738 0 3.058 1.254 3.058 3.806v.176c0 2.486-1.078 3.784-3.036 3.784zM93.51 21.22c3.102 0 5.148-1.87 5.324-4.51h-2.442c-.176 1.65-1.364 2.464-2.772 2.464-1.958 0-3.19-1.298-3.19-3.828v-.176c0-2.376 1.298-3.784 3.124-3.784 1.408 0 2.398.616 2.64 2.178h2.574c-.286-3.168-2.728-4.312-5.258-4.312-3.234 0-5.808 2.332-5.808 5.962v.176c0 3.674 2.508 5.83 5.808 5.83zm12.627 0c2.97 0 4.598-1.32 4.598-3.674 0-2.442-1.606-3.102-4.312-3.52-1.848-.286-2.376-.638-2.376-1.474 0-.814.682-1.364 1.826-1.364 1.232 0 1.804.484 2.046 1.54h2.464c-.286-2.596-2.134-3.476-4.51-3.476-2.156 0-4.312 1.166-4.312 3.454 0 2.156 1.1 3.036 4.158 3.498 1.694.286 2.464.638 2.464 1.584 0 .968-.638 1.474-2.068 1.474-1.584 0-2.134-.682-2.288-1.848h-2.508c.11 2.464 1.826 3.806 4.818 3.806zm12.211 0c1.716 0 3.146-1.012 3.784-2.156V21h2.663V4.17h-2.663v7.084c-.638-1.144-1.804-2.002-3.674-2.002-2.992 0-5.17 2.31-5.17 6.006v.176c0 3.762 2.178 5.786 5.06 5.786zm.66-2.112c-1.738 0-2.992-1.21-2.992-3.74v-.176c0-2.486 1.144-3.85 3.102-3.85 1.937 0 3.103 1.232 3.103 3.784v.176c0 2.574-1.364 3.806-3.213 3.806z" fill="#218F44"/><path d="M73.584 32.17V49h2.662v-5.654L80.558 49h3.08l-4.84-6.226 4.466-5.28H80.36l-4.114 5.06V32.17h-2.662zM89.23 49.22c1.76 0 2.75-.638 3.52-1.628V49h2.618v-7.546c0-3.168-2.024-4.202-4.598-4.202s-4.686 1.122-4.928 3.806h2.574c.154-1.144.792-1.804 2.2-1.804 1.584 0 2.09.748 2.09 2.31v.594h-1.43c-3.278 0-5.896.968-5.896 3.652 0 2.398 1.738 3.41 3.85 3.41zm.638-1.914c-1.32 0-1.848-.638-1.848-1.606 0-1.408 1.298-1.87 3.322-1.87h1.364v1.144c0 1.496-1.188 2.332-2.838 2.332zm8.307 1.386V49h9.856v-2.134h-5.896l6.072-8.998v-.374h-9.438v2.112h5.5l-6.094 9.086zm16.147.528c1.76 0 2.75-.638 3.52-1.628V49h2.618v-7.546c0-3.168-2.024-4.202-4.598-4.202s-4.686 1.122-4.928 3.806h2.574c.154-1.144.792-1.804 2.2-1.804 1.584 0 2.09.748 2.09 2.31v.594h-1.43c-3.278 0-5.896.968-5.896 3.652 0 2.398 1.738 3.41 3.85 3.41zm.638-1.914c-1.32 0-1.848-.638-1.848-1.606 0-1.408 1.298-1.87 3.322-1.87h1.364v1.144c0 1.496-1.188 2.332-2.838 2.332zm9.517-15.136V49h2.662v-5.654L131.451 49h3.08l-4.84-6.226 4.466-5.28h-2.904l-4.114 5.06V32.17h-2.662zm12.847 0V49h2.662v-6.776c0-1.826 1.21-2.75 2.706-2.75 1.584 0 2.288.77 2.288 2.53V49h2.662v-7.238c0-3.168-1.628-4.51-3.938-4.51-1.914 0-3.168.946-3.718 2.068v-7.15h-2.662zm18.289 17.05c2.97 0 4.598-1.32 4.598-3.674 0-2.442-1.606-3.102-4.312-3.52-1.848-.286-2.376-.638-2.376-1.474 0-.814.682-1.364 1.826-1.364 1.232 0 1.804.484 2.046 1.54h2.464c-.286-2.596-2.134-3.476-4.51-3.476-2.156 0-4.312 1.166-4.312 3.454 0 2.156 1.1 3.036 4.158 3.498 1.694.286 2.464.638 2.464 1.584 0 .968-.638 1.474-2.068 1.474-1.584 0-2.134-.682-2.288-1.848h-2.508c.11 2.464 1.826 3.806 4.818 3.806zm11.815-.022c.814 0 1.386-.132 1.804-.286V46.8c-.352.154-.792.22-1.298.22-.858 0-1.32-.44-1.32-1.474v-6.05h2.53v-2.002h-2.53v-2.53h-2.662v2.53h-1.54v2.002h1.54v6.292c0 2.2 1.188 3.41 3.476 3.41zm8.292.022c1.76 0 2.75-.638 3.52-1.628V49h2.618v-7.546c0-3.168-2.024-4.202-4.598-4.202s-4.686 1.122-4.928 3.806h2.574c.154-1.144.792-1.804 2.2-1.804 1.584 0 2.09.748 2.09 2.31v.594h-1.43c-3.278 0-5.896.968-5.896 3.652 0 2.398 1.738 3.41 3.85 3.41zm.638-1.914c-1.32 0-1.848-.638-1.848-1.606 0-1.408 1.298-1.87 3.322-1.87h1.364v1.144c0 1.496-1.188 2.332-2.838 2.332zm9.517-9.812V49h2.662v-6.776c0-1.826 1.21-2.75 2.706-2.75 1.584 0 2.288.77 2.288 2.53V49h2.662v-7.238c0-3.168-1.628-4.51-3.938-4.51-1.914 0-3.168.946-3.718 2.068v-1.826h-2.662z" fill="#1A2828"/></svg>